<svg width="180" height="32" viewBox="0 0 831 147" fill="none" xmlns="http://www.w3.org/2000/svg">
  <path d="M151.803 64.0314L108.512 91.5791V143.118L102.294 146.813L67.2313 127.359L75.3351 122.206L100.134 135.955V96.8951L59.2648 122.922L0.402588 90.4606V83.1967L43.6814 55.6489V4.09746L49.8998 0.402649L108.5 32.9019V81.5881L141.302 60.7136L116.479 46.9649V37.3257L151.791 56.7674L151.803 63.4007V64.0314ZM96.0755 89.5055L48.0392 62.8752L10.9039 86.5145L49.9247 108.13L58.9651 113.132L96.0879 89.5055H96.0755ZM100.121 37.8912L52.0724 11.2483V55.473L100.109 82.1033V37.8912H100.121ZM227.573 74.211H239.123V54.1911H233.017V18.7134H220.68V54.1911H197.767V18.7134H185.43V64.3079H227.573V74.2236V74.211ZM249.462 18.7134V64.3079H291.017V54.7944H261.799V45.6076H284.125V36.4208H261.799V28.2269H290.755V18.7134H249.462ZM302.23 18.7134V64.3079H314.567V45.9343H338.592V64.3079H350.928V18.7134H338.592V35.8302H314.567V18.7134H302.23ZM378.274 28.8175V64.2953H390.611V28.8175H408.604V18.7134H360.281V28.8175H378.274ZM418.107 18.7134V64.3079H430.444V50.2324H449.024C454.605 50.2324 458.801 48.85 461.498 46.0726C464.195 43.2952 465.506 39.3993 465.506 34.3723C465.506 29.3454 464.195 25.6506 461.498 22.8732C458.813 20.0958 454.605 18.7134 449.024 18.7134H418.107ZM452.97 35.3652C452.97 37.8535 451.996 40.5806 447.263 40.5806H430.456V28.3525H447.263C451.446 28.3525 452.97 30.6775 452.97 33.5052V35.3526V35.3652ZM483.624 18.7134L464.058 64.3079H475.608L479.878 54.2037H502.991L507.262 64.3079H520.135L500.631 18.7134H483.624ZM483.687 45.2054L491.428 26.8319L499.17 45.2054H483.674H483.687ZM527.203 53.3994V64.2953H530.612C533.896 64.2953 536.593 63.8303 538.69 62.8375C540.726 61.9075 542.362 60.3869 543.61 58.2755C544.796 56.227 545.583 53.4496 546.045 50.0187C546.507 46.6507 546.707 42.4909 546.707 37.6022V28.8175H565.487V64.2953H577.824V18.7134H535.219V37.6147C535.219 43.0941 534.82 47.1282 534.033 49.6417C533.184 52.1552 531.336 53.4119 528.451 53.4119H527.203V53.3994ZM588.75 18.7134V64.3079H619.604C625.186 64.3079 629.381 62.9255 632.078 60.1481C634.763 57.3707 636.087 53.5376 636.087 48.6489C636.087 43.7602 634.775 39.7889 632.078 37.0241C629.381 34.2467 625.186 32.8642 619.604 32.8642H601.086V18.7259H588.75V18.7134ZM623.537 49.5663C623.537 51.087 623.075 52.2809 622.164 53.1355C621.177 54.0655 619.729 54.5179 617.706 54.5179H601.099V42.6291H617.706C619.742 42.6291 621.19 43.0941 622.164 43.9487C623.088 44.8787 623.537 46.06 623.537 47.5178V49.5663ZM644.478 18.7134V64.3079H656.814V45.9343H680.839V64.3079H693.176V18.7134H680.839V35.8302H656.814V18.7134H644.478ZM704.676 18.7134V64.3079H735.53C741.112 64.3079 745.307 62.9255 748.005 60.1481C750.689 57.3707 752.013 53.5376 752.013 48.6489C752.013 43.7602 750.702 39.7889 748.005 37.0241C745.307 34.2467 741.112 32.8642 735.53 32.8642H717.013V18.7259H704.676V18.7134ZM739.464 49.5663C739.464 51.087 739.002 52.2809 738.09 53.1355C737.104 54.0655 735.655 54.5179 733.632 54.5179H717.025V42.6291H733.632C735.668 42.6291 737.116 43.0941 738.09 43.9487C739.014 44.8787 739.464 46.06 739.464 47.5178V49.5663ZM200.639 132.737H212.713L239.373 87.1428H227.223L213.825 110.141L198.928 87.1428H185.343L207.394 121.1L200.639 132.725V132.737ZM246.777 87.1428V132.737H259.114V114.364H283.138V132.737H295.475V87.1428H283.138V104.26H259.114V87.1428H246.777ZM344.922 102.4V132.725H357.259V87.1303H343.998L319.774 117.455V87.1303H307.437V132.725H320.698L344.922 102.4ZM369.271 87.1428V132.737H400.713C405.707 132.737 409.441 131.619 411.938 129.306C414.373 126.994 415.609 123.689 415.609 119.391C415.609 116.752 414.948 114.502 413.574 112.592C412.201 110.682 409.965 109.349 406.881 108.558C409.641 107.628 411.539 106.245 412.663 104.335C413.711 102.488 414.236 100.439 414.236 98.1896C414.236 94.5576 412.987 91.7802 410.565 89.9328C408.13 88.0854 404.596 87.1554 400.063 87.1554H369.271V87.1428ZM401.899 100.892C401.899 102.412 401.437 103.531 400.525 104.322C399.539 105.114 398.228 105.516 396.455 105.516H381.483V95.274H396.455C398.228 95.274 399.539 95.6761 400.525 96.3925C401.449 97.1214 401.899 98.2399 401.899 99.6348V100.892ZM403.273 119.655C403.273 121.301 402.748 122.495 401.699 123.35C400.65 124.204 399.139 124.606 397.241 124.606H381.483V113.245H397.241C399.214 113.245 400.725 113.647 401.774 114.439C402.761 115.294 403.285 116.425 403.285 117.946V119.667L403.273 119.655ZM425.461 87.1428V132.737H467.017V123.224H437.798V114.037H460.124V104.85H437.798V96.6564H466.755V87.1428H425.461ZM477.056 87.1428V132.737H489.393V118.662H507.973C513.555 118.662 517.75 117.279 520.448 114.502C523.132 111.725 524.456 107.829 524.456 102.802C524.456 97.7749 523.145 94.0801 520.448 91.3027C517.75 88.5253 513.555 87.1428 507.973 87.1428H477.056ZM511.919 103.795C511.919 105.378 511.457 106.635 510.608 107.565C509.684 108.558 508.248 109.023 506.213 109.023H489.406V96.7946H506.213C508.248 96.7946 509.696 97.2596 510.608 98.2524C511.457 99.2453 511.919 100.439 511.919 101.947V103.795ZM531.473 110.003C531.473 114.427 532.06 118.197 533.309 121.238C534.495 124.342 536.193 126.793 538.491 128.578C540.726 130.362 543.473 131.682 546.757 132.473C550.041 133.265 553.712 133.667 557.845 133.667C565.399 133.667 571.368 132.411 575.838 129.897C580.234 127.447 582.793 123.224 583.518 117.342H571.043C570.382 120.057 568.946 121.841 566.711 122.696C564.475 123.626 561.529 124.078 557.845 124.078C553.712 124.078 550.365 123.287 547.806 121.766C545.246 120.245 543.997 117.141 543.997 112.579V107.288C543.997 104.976 544.322 103.066 545.046 101.545C545.708 100.024 546.62 98.9059 547.868 98.0388C549.117 97.1842 550.553 96.581 552.263 96.2542C553.974 95.9275 555.81 95.7892 557.845 95.7892C561.653 95.7892 564.675 96.2542 566.91 97.1716C569.146 98.1016 570.519 100.012 570.981 102.915H583.455C582.868 96.7695 580.309 92.4086 575.901 89.8951C571.443 87.4445 565.399 86.2003 557.845 86.2003C553.712 86.2003 550.028 86.6025 546.757 87.3942C543.473 88.2488 540.713 89.5809 538.491 91.4283C536.193 93.3386 534.482 95.7892 533.309 98.8305C532.06 101.872 531.473 105.567 531.473 110.003ZM630.143 102.4V132.725H642.48V87.1303H629.219L604.995 117.455V87.1303H592.658V132.725H605.919L630.143 102.4ZM668.877 97.247V132.725H681.213V97.247H699.207V87.1428H650.883V97.247H668.877ZM707.535 87.1428V132.737H749.091V123.224H719.872V114.037H742.198V104.85H719.872V96.6564H748.829V87.1428H707.535ZM775.188 97.247V132.725H787.525V97.247H805.518V87.1428H757.195V97.247H775.188ZM756.77 18.7008V64.2953H769.107V18.7134H756.77V18.7008ZM811.037 3.83355C810.912 7.30215 808.964 8.72227 805.656 8.72227C802.347 8.72227 800.399 7.30215 800.274 3.83355H791.196C791.421 10.2304 795.354 15.3956 805.656 15.3956C815.957 15.3956 819.89 10.2304 820.115 3.83355H811.037ZM817.143 18.7008L792.919 49.0259V18.7134H780.582V64.3079H793.843L818.067 33.9827V64.3079H830.404V18.7134H817.143V18.7008Z" fill="#06090F"/>
</svg>
